<?xml version="1.0" encoding="utf-8"?>
<!-- Generator: Adobe Illustrator 16.0.0, SVG Export Plug-In . SVG Version: 6.00 Build 0)  -->
<!DOCTYPE svg PUBLIC "-//W3C//DTD SVG 1.1//EN" "http://www.w3.org/Graphics/SVG/1.1/DTD/svg11.dtd">
<svg version="1.1" xmlns="http://www.w3.org/2000/svg" xmlns:xlink="http://www.w3.org/1999/xlink" x="0px" y="0px" width="200px"
	 height="333px" viewBox="0 0 200 333" enable-background="new 0 0 200 333" xml:space="preserve">
<g id="Layer_1">
</g>
<g id="Layer_2">
</g>
<g id="Layer_3">
	<rect x="1.067" fill="#E6E7E8" width="198.241" height="352.016"/>
	<path fill="#BCBEC0" d="M176.868,190.951v1.055h0.677v-1.104l1.086,0.05v1.055h0.677V190.9l1.064,0.051v1.055h0.677V190.9
		l1.093,0.051v1.055h0.677V190.9l1.064,0.051v1.055h0.678V190.9l0.989,0.051v1.055h0.677V190.9l1.089,0.051v1.055h0.677V190.9
		l1.088,0.051v1.055h0.677V190.9l0.966,0.001v4.347l1.351-1.004h2.547v-1.17c0,0-1.312-1.016,0.309-1.119
		c0,0,0.078-2.188,1.081-1.726c1.003,0.464,0.54,1.224,0.54,1.224l0.772,0.553c0,0-0.154,0.849,0,1.466
		c0.154,0.618,0.386-1.531,1.312-0.766s0.231-1.728,0.926-1.253c0.695,0.476,1.467-2.636,1.853,0
		c0.386,2.637,0.231,0.477,0.463,0.553c0.232,0.077,1.775,1.621,1.775,2.161s1.158-2.548,1.235-1.081s0.386,2.162,0.386,2.162h4.863
		l1.389,31.65l-222.686,8.285l7.616-26.297l1.029-1.287l3.911-4.555h5.096l3.783-3.629l2.933,2.316v-9.342
		c0,0,1.312-2.701,3.011-3.242c0,0,2.624,1.777,3.628,3.397v9.804h31.882l3.165-3.976l3.551,3.241l15.516-0.191l12.12-11.232
		l5.519,5.364l13.754,0.206l3.706,2.612v-7.448l1.213-0.026v1.056h0.69l-0.051-1.029l1.213-0.025v1.055h0.69v-1.105l0.978,0.051
		v1.055h0.691v-1.105l1.084,0.051v1.055h0.691v-1.105l1.114,0.051v1.055h0.691v-1.105l1.085,0.051v1.055h0.69v-1.105l1.008,0.051
		v1.055h0.69v-1.105l1.111,0.051v1.055h0.69v-1.105l1.11,0.051v1.055h0.69v-1.105h1.042v1.105h16.712l-0.23-6.434
		c0,0-0.772-0.928-1.313-0.966s0.618-1.042,1.543-0.54v-2.133l1.272-0.041v1.723h0.724v-1.807l1.083,0.086v1.721h0.725v-1.805
		l1.159,0.084v1.723h0.724v-1.807l1.137,0.084v1.723h0.724v-1.807l1.168,0.084v1.723h0.723v-1.807l1.137,0.084v1.723h0.724v-1.807
		l1.056,0.084v1.723h0.724v-1.807l1.165,0.084l0.231,2.287c0,0,1.621-0.463,1.775,0c0.155,0.463-0.656,0.811-0.656,0.811
		l-0.733,0.966l-0.24,5.712l16.463,0.387v-1.029l1.19-0.025v1.055h0.678v-1.106L176.868,190.951z"/>
	<rect y="224.121" fill="#BCBEC0" width="199.308" height="127.895"/>
</g>
</svg>
